<svg height="50" viewBox="0 0 50 50" width="50" xmlns="http://www.w3.org/2000/svg">
    <title/>
    <path d="M50 25C50 11.193 38.807 0 25 0S0 11.193 0 25s11.193 25 25 25 25-11.193 25-25zm-3 0c0-12.15-9.85-22-22-22S3 12.85 3 25s9.85 22 22 22 22-9.85 22-22zm-33 3.899C14 32.823 17.205 36 21.154 36h7.7C32.806 36 36 32.823 36 28.899v-5.036a1.42 1.42 0 0 0-1.422-1.42H33.37a1.43 1.43 0 0 1-1.448-1.322C31.914 17.18 28.712 14 24.76 14h-3.606c-3.95 0-7.151 3.18-7.154 7.104V28.9zM27 21.5c0 .826-.636 1.5-1.416 1.5h-4.168c-.78 0-1.416-.674-1.416-1.5 0-.83.636-1.5 1.416-1.5h4.168c.78 0 1.416.67 1.416 1.5zm4 6.993c0 .828-.601 1.507-1.338 1.507H21.33C20.593 30 20 29.32 20 28.493c0-.827.593-1.493 1.329-1.493h8.333C30.4 27 31 27.666 31 28.493zm0 0" fill="#000" fill-rule="evenodd"/>
</svg>
