<svg id="Capa_1" xmlns="http://www.w3.org/2000/svg" viewBox="0 0 297 297">
    <style>
        .st0{fill:#fff}
    </style>
    <path class="st0" d="M254 121.9c0-5.5-4.4-9.9-9.7-9.9-5.3 0-9.7 4.4-9.7 9.9v29.5c0 5.6-4.5 10.1-10.1 10.1s-10.1-4.5-10.1-10.1v-46.1c0-5.5-4.4-9.9-9.7-9.9-5.3 0-9.7 4.4-9.7 9.9v32.9c0 5.6-4.5 10.1-10.1 10.1s-10.1-4.5-10.1-10.1V92c0-5.5-4.4-9.9-9.7-9.9-5.3 0-9.7 4.4-9.7 9.9v32.9c0 5.6-4.5 10.1-10.1 10.1s-10.1-4.5-10.1-10.1V30.2c0-5.5-4.4-9.9-9.7-9.9-5.4 0-9.7 4.4-9.7 9.9v146.7c0 4.2-2.6 8-6.6 9.5-4 1.5-8.4.4-11.2-2.8l-39.1-44.8c-1.8-1.7-4.2-2.7-6.8-2.7-2.6 0-5 1-6.9 2.8-3.9 3.9-1.2 10.9 1.8 16 11.3 19.8 23.7 38.8 34.7 55.5 8.3 12.6 16.1 24.6 22 34.7 3.9 6.6 11.7 22.9 15.9 31.6H234c7-23.2 20-68.7 20-85.6v-69.2z"/>
    <path d="M113 297h128.3H113zM250.9 290c2.4-7.4 23.4-73.4 23.4-98.9v-69.2c0-16.7-13.5-30.2-30-30.2-4.2 0-8.2.9-11.8 2.5-4.5-11.2-15.3-19.1-27.9-19.1-4.7 0-9.1 1.1-13.1 3-5-9.7-15-16.3-26.6-16.3-3.4 0-6.7.6-9.7 1.6V30.2c0-16.7-13.5-30.2-30-30.2s-30 13.5-30 30.2v119.6l-21.6-24.7-.5-.5c-5.7-5.7-13.2-8.8-21.3-8.9h-.2c-8 0-15.5 3.1-21.1 8.7-9.9 9.9-10.5 24.6-1.5 40.4 11.6 20.4 24.2 39.6 35.4 56.6 8.1 12.4 15.8 24.1 21.4 33.8 4.9 8.4 17.8 35.7 17.9 35.9 1.7 3.5 5.2 5.8 9.1 5.8h128.3c4.6.1 8.4-2.7 9.8-6.9zm-131.5-13.3c-4.2-8.8-12.1-25-15.9-31.6-5.9-10.2-13.7-22.1-22-34.7-11-16.7-23.4-35.7-34.7-55.5-2.9-5.2-5.6-12.2-1.8-16 1.8-1.8 4.2-2.8 6.9-2.8 2.6 0 5 1 6.8 2.7l39.1 44.8c2.8 3.2 7.2 4.3 11.2 2.8 4-1.5 6.6-5.3 6.6-9.5V30.2c0-5.5 4.4-9.9 9.7-9.9 5.4 0 9.7 4.4 9.7 9.9v94.7c0 5.6 4.5 10.1 10.1 10.1s10.1-4.5 10.1-10.1V92c0-5.5 4.4-9.9 9.7-9.9 5.4 0 9.7 4.4 9.7 9.9v46.1c0 5.6 4.5 10.1 10.1 10.1s10.1-4.5 10.1-10.1v-32.9c0-5.5 4.4-9.9 9.7-9.9 5.4 0 9.7 4.4 9.7 9.9v46.1c0 5.6 4.5 10.1 10.1 10.1s10.1-4.5 10.1-10.1v-29.5c0-5.5 4.4-9.9 9.7-9.9 5.4 0 9.7 4.4 9.7 9.9V191c0 16.9-13 62.4-20.2 85.6H119.4z"/>
</svg>
