<svg xmlns="http://www.w3.org/2000/svg" viewBox="0 0 466.869 466.869" width="512" height="512">
    <path d="M31.502 277.466H49.86v172.793c0 9.616 6.993 16.609 16.609 16.609H400.4c9.616 0 16.609-6.993 16.609-16.609V277.466h18.357c9.616 0 16.609-6.702 16.609-16.609V140.223c0-9.616-6.993-17.192-16.609-17.192h-82.171c38.463-20.397 57.986-39.046 60.9-60.609 1.748-13.112-2.331-32.053-30.596-49.245C353.486-4.888 328.718-1.1 312.983 5.31c-25.642 10.49-48.37 36.132-67.019 76.344-2.914 6.119-5.245 11.947-7.576 17.483-2.331-5.536-4.662-11.364-7.576-17.483-18.94-40.212-41.377-65.854-67.019-76.344-15.735-6.41-40.503-10.198-70.516 7.868C64.721 30.37 60.933 49.601 62.681 62.714c2.622 21.271 22.145 39.92 60.609 60.317H31.502c-9.616 0-16.609 7.576-16.609 17.192v120.635c0 9.907 6.994 16.608 16.609 16.608zm53.324 0h131.125v154.436H84.826V277.466zm297.216 154.436H250.918V277.466h131.125v154.436zM417.009 242.5H250.918v-84.502h166.091V242.5zM277.725 96.223c14.569-31.47 31.47-51.867 48.662-58.86 4.371-1.748 8.742-2.622 13.404-2.622 8.159 0 16.609 2.622 25.642 8.159 9.033 5.536 14.569 11.364 14.278 14.861-2.04 15.735-53.033 43.708-111.893 62.066 2.623-6.995 5.828-15.154 9.907-23.604zM97.065 57.76c-.583-3.497 4.954-9.324 14.278-14.861 9.033-5.536 17.483-8.159 25.642-8.159 4.662 0 9.033.874 13.404 2.622 27.099 11.073 47.496 52.158 58.86 82.463-59.152-18.357-110.145-46.33-112.184-62.065zM49.86 157.997h166.091V242.5H49.86v-84.503z" fill="#FFF"/>
</svg>
