<svg xmlns="http://www.w3.org/2000/svg" width="512" height="512" viewBox="0 0 27.555 27.555">
    <path d="M13.777 0C7.108 0 1.701 5.407 1.701 12.076c0 3.45 1.454 6.553 3.773 8.752l-.404 6.727 5.736-3.787c.952.241 1.944.383 2.971.383 6.67 0 12.076-5.406 12.076-12.076C25.854 5.407 20.447 0 13.777 0zM9.151 10.694v2.423h-2.61v-2.009c0-.74.154-1.324.462-1.752.309-.428.836-.806 1.584-1.134l.564 1.068c-.46.216-.778.431-.954.645a1.304 1.304 0 0 0-.294.759h1.248zm4.003 0v2.423h-2.61v-2.009c0-.74.154-1.324.462-1.752.308-.428.836-.806 1.584-1.134l.564 1.068c-.46.216-.778.431-.954.645a1.304 1.304 0 0 0-.294.759h1.248zm3.856 1.986c0 .74-.153 1.324-.461 1.752-.309.428-.836.807-1.584 1.135l-.565-1.069c.46-.217.777-.432.954-.645a1.31 1.31 0 0 0 .294-.76H14.4V10.67h2.609v2.01zm4.004 0c0 .74-.154 1.324-.463 1.752-.308.428-.836.807-1.584 1.135l-.563-1.068c.46-.217.778-.432.954-.645.176-.215.273-.468.294-.76h-1.249V10.67h2.609v2.01h.002z" fill="#FFF"/>
</svg>
