<svg height="512" viewBox="0 0 512 512" width="512" xmlns="http://www.w3.org/2000/svg" xmlns:xlink="http://www.w3.org/1999/xlink">
    <path d="M482.722 103.198c13.854 0 25.126 11.271 25.126 25.126v257.9c0 13.854-11.271 25.126-25.126 25.126H30.99c-13.854 0-25.126-11.271-25.126-25.126v-257.9c0-13.854 11.271-25.126 25.126-25.126h451.732m0-5H30.99c-16.638 0-30.126 13.488-30.126 30.126v257.9c0 16.639 13.488 30.126 30.126 30.126h451.732c16.639 0 30.126-13.487 30.126-30.126v-257.9c0-16.638-13.488-30.126-30.126-30.126z" fill="#0098D0"/>
    <defs>
        <path d="M263.488 241.026v-10.115s-.535-7.92-8.802-7.92h-12.852v18.035h-13.193v-51.994h32.03s16.717-2.024 16.717 15.218c0 8.975-7.39 12.139-7.39 12.139s6.416 2.997 6.416 11.795v12.841h-12.926m-21.653-30.263h13.643c3.962 0 7.219-2.201 7.219-4.926 0-2.73-3.257-4.93-7.219-4.93h-13.643v9.856" id="b"/>
    </defs>
    <radialGradient cx="101.184" cy="89.778" gradientUnits="userSpaceOnUse" id="a" r="512.078">
        <stop offset="0" stop-color="#00b1e7"/>
        <stop offset=".427" stop-color="#0098cd"/>
        <stop offset=".524" stop-color="#008dbe"/>
        <stop offset=".84" stop-color="#006c91"/>
        <stop offset="1" stop-color="#005f80"/>
    </radialGradient>
    <use fill="url(#a)" overflow="visible" xlink:href="#b"/>
    <defs>
        <path d="M419.223 241.026l-20.938-34.752v34.752h-25.864l-4.668-10.908h-24.106l-4.583 10.908H318.385s-17.768-2.549-17.768-24.545c0-28.862 20.154-27.716 20.851-27.893l16.278.444v11.7l-13.367.172s-8.715 0-9.776 11.355a35.19 35.19 0 0 0-.171 3.614c.047 17.577 15.257 12.12 15.754 11.958l16.364-38.799h18.472l19.792 47.159v-47.159h18.655l20.679 34.227v-34.227h13.29v51.994h-18.215m-69.944-24.192h12.84l-6.329-15.486-6.511 15.486" id="d"/>
    </defs>
    <radialGradient cx="101.202" cy="89.778" gradientUnits="userSpaceOnUse" id="c" r="512.044">
        <stop offset="0" stop-color="#00b1e7"/>
        <stop offset=".427" stop-color="#0098cd"/>
        <stop offset=".524" stop-color="#008dbe"/>
        <stop offset=".84" stop-color="#006c91"/>
        <stop offset="1" stop-color="#005f80"/>
    </radialGradient>
    <use fill="url(#c)" overflow="visible" xlink:href="#d"/>
    <g>
        <defs>
            <path d="M159.92 241.026v-35.893l-16.536 35.893h-10.821l-16.631-35.72v35.72H89.888l-4.573-10.908H61.208l-4.664 10.908h-14.43l21.906-51.994h18.569l20.058 47.774v-47.774h20.852l14.521 32.289 14.436-32.289h20.851v51.994H159.92m-93.084-24.192h12.845l-6.42-15.486-6.425 15.486" id="f"/>
        </defs>
        <radialGradient cx="101.203" cy="89.786" gradientUnits="userSpaceOnUse" id="e" r="512.048">
            <stop offset="0" stop-color="#00b1e7"/>
            <stop offset=".427" stop-color="#0098cd"/>
            <stop offset=".524" stop-color="#008dbe"/>
            <stop offset=".84" stop-color="#006c91"/>
            <stop offset="1" stop-color="#005f80"/>
        </radialGradient>
        <use fill="url(#e)" overflow="visible" xlink:href="#f"/>
    </g>
    <g>
        <defs>
            <path id="h" d="M180.6 241.026v-51.993h41.186v12.139H193.89v8.005h27.19v11.791h-27.19v8.802h27.896v11.256H180.6"/>
        </defs>
        <radialGradient cx="101.174" cy="89.786" gradientUnits="userSpaceOnUse" id="g" r="512.087">
            <stop offset="0" stop-color="#00b1e7"/>
            <stop offset=".427" stop-color="#0098cd"/>
            <stop offset=".524" stop-color="#008dbe"/>
            <stop offset=".84" stop-color="#006c91"/>
            <stop offset="1" stop-color="#005f80"/>
        </radialGradient>
        <use fill="url(#g)" overflow="visible" xlink:href="#h"/>
    </g>
    <g>
        <defs>
            <path id="j" d="M282.85 241.203v-52.17h13.28v52.17h-13.28"/>
        </defs>
        <radialGradient cx="101.194" cy="89.788" gradientUnits="userSpaceOnUse" id="i" r="512.057">
            <stop offset="0" stop-color="#00b1e7"/>
            <stop offset=".427" stop-color="#0098cd"/>
            <stop offset=".524" stop-color="#008dbe"/>
            <stop offset=".84" stop-color="#006c91"/>
            <stop offset="1" stop-color="#005f80"/>
        </radialGradient>
        <use fill="url(#i)" overflow="visible" xlink:href="#j"/>
    </g>
    <g>
        <defs>
            <path d="M314.432 329.189v-10.12s-.534-7.914-8.802-7.914h-12.842v18.034h-13.204v-51.998h32.03s16.718-2.023 16.718 15.223c0 8.974-7.389 12.145-7.389 12.145s6.34 2.988 6.34 11.78v12.851h-12.851m-21.644-30.265h13.644c3.952 0 7.208-2.195 7.208-4.926 0-2.729-3.256-4.927-7.208-4.927h-13.644v9.853" id="l"/>
        </defs>
        <radialGradient cx="101.194" cy="89.786" gradientUnits="userSpaceOnUse" id="k" r="512.043">
            <stop offset="0" stop-color="#00b1e7"/>
            <stop offset=".427" stop-color="#0098cd"/>
            <stop offset=".524" stop-color="#008dbe"/>
            <stop offset=".84" stop-color="#006c91"/>
            <stop offset="1" stop-color="#005f80"/>
        </radialGradient>
        <use fill="url(#k)" overflow="visible" xlink:href="#l"/>
        <defs>
            <path d="M226.445 329.104h-11.533l-13.977-15.401-14.091 15.401h-49.092v-52.086h48.042l15.142 16.542 15.219-16.456h10.119v-.086h32.022s16.718-1.851 16.718 15.301c0 15.313-5.548 20.067-22.619 20.067h-12.926v16.718h-13.024m-16.536-25.596l16.363 18.12v-36.165l-16.363 18.045m-58.867 14.341h27.801l13.023-14.341-13.023-14.264h-27.801v8.001h27.095v11.801h-27.095v8.803m88.426-19.019h13.633c3.962 0 7.218-2.196 7.218-4.926 0-2.721-3.256-4.927-7.218-4.927h-13.633v9.853" id="n"/>
        </defs>
        <radialGradient cx="101.2" cy="89.771" gradientUnits="userSpaceOnUse" id="m" r="512.073">
            <stop offset="0" stop-color="#00b1e7"/>
            <stop offset=".427" stop-color="#0098cd"/>
            <stop offset=".524" stop-color="#008dbe"/>
            <stop offset=".84" stop-color="#006c91"/>
            <stop offset="1" stop-color="#005f80"/>
        </radialGradient>
        <use fill="url(#m)" overflow="visible" xlink:href="#n"/>
        <g>
            <defs>
                <path d="M404.441 329.018h-23.496v-11.973h20.595s7.39.88 7.39-4.123c0-4.679-11.17-4.316-11.17-4.316s-18.216 1.586-18.216-15.485c0-16.984 16.449-16.016 16.449-16.016h25.347v12.14h-20.41s-7.046-1.412-7.046 3.705c0 4.296 9.585 3.685 9.585 3.685s20.153-1.489 20.153 14.167c0 16.794-12.984 18.283-17.585 18.283-.993-.001-1.596-.067-1.596-.067" id="p"/>
            </defs>
            <radialGradient cx="101.203" cy="89.791" gradientUnits="userSpaceOnUse" id="o" r="512.04">
                <stop offset="0" stop-color="#00b1e7"/>
                <stop offset=".427" stop-color="#0098cd"/>
                <stop offset=".524" stop-color="#008dbe"/>
                <stop offset=".84" stop-color="#006c91"/>
                <stop offset="1" stop-color="#005f80"/>
            </radialGradient>
            <use fill="url(#o)" overflow="visible" xlink:href="#p"/>
        </g>
        <g>
            <defs>
                <path id="r" d="M333.794 329.104v-51.913h41.168v12.053h-27.889v8.001h27.191v11.801h-27.191v8.803h27.889v11.255h-41.168"/>
            </defs>
            <radialGradient cx="101.193" cy="89.782" gradientUnits="userSpaceOnUse" id="q" r="512.066">
                <stop offset="0" stop-color="#00b1e7"/>
                <stop offset=".427" stop-color="#0098cd"/>
                <stop offset=".524" stop-color="#008dbe"/>
                <stop offset=".84" stop-color="#006c91"/>
                <stop offset="1" stop-color="#005f80"/>
            </radialGradient>
            <use fill="url(#q)" overflow="visible" xlink:href="#r"/>
        </g>
        <g>
            <defs>
                <path d="M450.984 329.018h-23.495v-11.973h20.507s7.477.88 7.477-4.123c0-4.679-11.169-4.316-11.169-4.316s-18.218 1.586-18.218-15.485c0-16.984 16.449-16.016 16.449-16.016h25.262v12.14h-20.334s-7.038-1.412-7.038 3.705c0 4.296 9.596 3.685 9.596 3.685s20.144-1.489 20.144 14.167c0 16.794-12.983 18.283-17.584 18.283-.995-.001-1.597-.067-1.597-.067" id="t"/>
            </defs>
            <radialGradient cx="101.204" cy="89.791" gradientUnits="userSpaceOnUse" id="s" r="512.027">
                <stop offset="0" stop-color="#00b1e7"/>
                <stop offset=".427" stop-color="#0098cd"/>
                <stop offset=".524" stop-color="#008dbe"/>
                <stop offset=".84" stop-color="#006c91"/>
                <stop offset="1" stop-color="#005f80"/>
            </radialGradient>
            <use fill="url(#s)" overflow="visible" xlink:href="#t"/>
        </g>
    </g>
</svg>
