<svg height="56" viewBox="0 0 87 56" width="87" xmlns="http://www.w3.org/2000/svg">
    <path d="M86 52.636C86 53.941 84.84 55 83.407 55H3.593C2.161 55 1 53.941 1 52.636V3.365C1 2.059 2.161 1 3.593 1h79.814C84.84 1 86 2.059 86 3.365v49.271z" fill="#F1F2F2"/>
    <path clip-rule="evenodd" fill="#231F20" fill-rule="evenodd" d="M17.626 14.59h2.858v26.76h-2.858V14.59zM21.385 14.59h.886v26.76h-.886V14.59zM23.042 14.59h1.586v26.76h-1.586V14.59zM26.156 14.59h.886v26.76h-.886V14.59zM27.427 14.59h.682v26.76h-.682V14.59zM15.453 14.59h.886v26.76h-.886V14.59zM13.5 14.59h1.585v26.76H13.5V14.59zM32.843 14.59H35.7v26.76h-2.857V14.59zM36.601 14.59h.885v26.76h-.885V14.59zM38.258 14.59h1.586v26.76h-1.586V14.59zM41.372 14.59h.886v26.76h-.886V14.59zM42.643 14.59h.683v26.76h-.683V14.59zM30.669 14.59h.886v26.76h-.886V14.59zM28.716 14.59h1.585v26.76h-1.585V14.59zM44.448 14.59h1.585v26.76h-1.585V14.59zM47.563 14.59h.883v26.76h-.883V14.59zM48.833 14.59h.684v26.76h-.684V14.59zM52.076 14.59h.885v26.76h-.885V14.59zM50.122 14.59h1.586v26.76h-1.586V14.59zM54.139 14.59h.884v26.76h-.884V14.59zM55.409 14.59h.683v26.76h-.683V14.59zM58.652 14.59h.885v26.76h-.885V14.59zM56.698 14.59h1.586v26.76h-1.586V14.59zM60.31 14.59h2.857v26.76H60.31V14.59zM64.067 14.59h.886v26.76h-.886V14.59zM65.725 14.59h1.586v26.76h-1.586V14.59zM68.839 14.59h.886v26.76h-.886V14.59zM70.109 14.59h.683v26.76h-.683V14.59zM71.916 14.59H73.5v26.76h-1.584V14.59z"/>
    <path clip-rule="evenodd" fill="#FFF" fill-rule="evenodd" d="M16.733 41.41h54.779V26.412H16.733V41.41z"/>
    <path d="M17.766 40.835V27.266h5.092c1.036 0 1.867.136 2.495.41a3.203 3.203 0 0 1 1.469 1.27c.357.568.534 1.166.534 1.791 0 .579-.158 1.124-.471 1.637-.313.511-.786.926-1.421 1.241.821.24 1.453.65 1.892 1.231.442.578.663 1.263.663 2.053a3.96 3.96 0 0 1-.404 1.775c-.269.547-.6.966-.995 1.264-.395.293-.891.519-1.484.67-.597.151-1.327.228-2.192.228h-5.178v-.001zm1.8-7.865H22.5c.795 0 1.368-.054 1.712-.158.458-.136.802-.363 1.032-.679.231-.316.348-.711.348-1.188 0-.451-.107-.849-.326-1.19a1.644 1.644 0 0 0-.925-.708c-.401-.126-1.09-.188-2.063-.188h-2.713v4.111h.001zm0 6.272h3.38c.581 0 .988-.021 1.225-.066.411-.072.759-.195 1.037-.369s.505-.426.685-.759c.18-.331.269-.714.269-1.146 0-.509-.129-.947-.392-1.324a2.043 2.043 0 0 0-1.08-.789c-.458-.151-1.122-.228-1.984-.228h-3.14v4.681zM29.648 35.917c0-1.816.505-3.162 1.52-4.036.843-.727 1.876-1.091 3.092-1.091 1.349 0 2.454.442 3.313 1.327.856.881 1.286 2.104 1.286 3.66 0 1.264-.189 2.256-.568 2.979a4.032 4.032 0 0 1-1.658 1.688c-.724.4-1.516.6-2.372.6-1.377 0-2.489-.438-3.339-1.319-.851-.883-1.274-2.154-1.274-3.808zm1.706.003c0 1.257.274 2.198.824 2.82a2.658 2.658 0 0 0 2.082.939c.827 0 1.516-.313 2.069-.942.549-.628.824-1.586.824-2.872 0-1.212-.278-2.131-.831-2.754-.553-.625-1.241-.938-2.063-.938-.837 0-1.529.31-2.082.932-.549.623-.823 1.561-.823 2.815zM40.776 40.835V27.266h1.667v13.569h-1.667zM51.733 37.65l1.724.228c-.269 1.001-.771 1.781-1.503 2.335-.732.553-1.668.83-2.809.83-1.435 0-2.57-.442-3.411-1.327-.84-.881-1.26-2.122-1.26-3.717 0-1.648.423-2.932 1.273-3.841.85-.913 1.951-1.368 3.306-1.368 1.312 0 2.382.446 3.213 1.34.83.894 1.247 2.15 1.247 3.771 0 .099-.003.246-.01.442H46.18c.063 1.078.367 1.904.916 2.477.546.571 1.232.86 2.05.86.61 0 1.132-.163 1.561-.484.432-.323.772-.838 1.026-1.546zm-5.458-2.671h5.476c-.072-.827-.283-1.447-.628-1.86-.527-.641-1.216-.963-2.06-.963-.764 0-1.405.256-1.927.767-.517.511-.805 1.196-.861 2.056zM59.184 39.347l.228 1.472a6.134 6.134 0 0 1-1.253.148c-.604 0-1.071-.094-1.406-.287-.331-.192-.565-.441-.702-.754-.135-.313-.202-.971-.202-1.972v-5.667h-1.231v-1.288h1.231v-2.433l1.668-1.001v3.434h1.668v1.288h-1.668v5.761c0 .478.028.784.089.92a.683.683 0 0 0 .285.325c.131.079.321.12.568.12.182 0 .425-.022.725-.066zM60.204 35.917c0-1.816.506-3.162 1.52-4.036.844-.727 1.876-1.091 3.093-1.091 1.348 0 2.453.442 3.313 1.327.856.881 1.285 2.104 1.285 3.66 0 1.264-.189 2.256-.568 2.979a4.02 4.02 0 0 1-1.658 1.688c-.724.4-1.517.6-2.371.6-1.378 0-2.489-.438-3.34-1.319-.85-.883-1.274-2.154-1.274-3.808zm1.705.003c0 1.257.275 2.198.825 2.82a2.656 2.656 0 0 0 2.082.939c.826 0 1.516-.313 2.068-.942.549-.628.825-1.586.825-2.872 0-1.212-.279-2.131-.831-2.754-.555-.625-1.242-.938-2.063-.938-.839 0-1.529.31-2.082.932-.548.623-.824 1.561-.824 2.815z" fill="#231F20"/>
</svg>
