<svg height="301" viewBox="0 0 480 301" width="480" xmlns="http://www.w3.org/2000/svg">
    <title/>
    <g fill="none" fill-rule="evenodd">
        <path d="M444 0H24C12 0 0 12.006 0 24.011v240.112c0 24.011 12 36.017 36 36.017h408c24 0 36-12.006 36-36.017V36.017C480 12.006 468 0 444 0z" fill="#F4F4F4"/>
        <path d="M254.42 186.333c36.377.174 69.58-29.72 69.58-66.087 0-39.77-33.203-67.26-69.58-67.246h-31.307C186.301 52.987 156 80.484 156 120.246c0 36.375 30.3 66.261 67.113 66.087h31.307z" fill="#4186CD"/>
        <path d="M222.661 58.333c-33.872.011-61.32 27.46-61.328 61.338.008 33.872 27.456 61.318 61.328 61.329 33.88-.01 61.334-27.457 61.339-61.33-.005-33.877-27.458-61.326-61.339-61.337zm-37.328 60.005c.031-16.429 9.976-30.438 24-36.005v72c-14.024-5.563-23.97-19.565-24-35.995zM236 154.333v-72c14.02 5.552 23.974 19.566 24 35.998-.026 16.437-9.98 30.44-24 36.002z" fill="#FFF"/>
        <g fill="#211E1F">
            <path d="M105.674 208.451c0-5.498-2.896-5.136-5.674-5.195v-1.59c2.407.118 4.875.118 7.286.118 2.594 0 6.114-.117 10.685-.117 15.989 0 24.696 10.57 24.696 21.395 0 6.054-3.579 21.271-25.439 21.271-3.148 0-6.053-.12-8.954-.12-2.777 0-5.496.06-8.274.12v-1.586c3.703-.37 5.497-.491 5.674-4.65v-29.646zm4.993 28.152c0 4.535 3.379 5.064 6.385 5.064 13.26 0 17.615-9.6 17.615-18.376 0-11.008-7.367-18.958-19.21-18.958-2.52 0-3.678.174-4.79.236v32.034zM142.667 242.817h1.18c1.743 0 2.991 0 2.991-1.93v-15.81c0-2.563-.933-2.92-3.24-4.08v-.936c2.928-.823 6.422-1.923 6.667-2.1.44-.233.81-.294 1.124-.294.308 0 .437.352.437.82v22.4c0 1.93 1.371 1.93 3.116 1.93H156v1.516c-2.121 0-4.303-.116-6.542-.116-2.243 0-4.489.057-6.791.116v-1.516zM147.999 207c-1.417 0-2.666-1.304-2.666-2.718 0-1.362 1.307-2.615 2.666-2.615 1.41 0 2.668 1.147 2.668 2.615 0 1.469-1.202 2.718-2.668 2.718zM162.523 225.426c0-2.157-.646-2.739-3.386-3.848v-1.107c2.51-.816 4.903-1.576 7.71-2.804.174 0 .345.119.345.583v3.795c3.336-2.39 6.2-4.378 10.12-4.378 4.96 0 6.713 3.618 6.713 8.168v15.051c0 1.93 1.285 1.93 2.923 1.93H188v1.517c-2.05 0-4.094-.116-6.193-.116-2.106 0-4.211.057-6.312.116v-1.516h1.05c1.64 0 2.802 0 2.802-1.93V225.78c0-3.33-2.035-4.962-5.371-4.962-1.867 0-4.848 1.517-6.784 2.802v17.266c0 1.93 1.292 1.93 2.93 1.93h1.05v1.517c-2.044 0-4.092-.117-6.195-.117-2.102 0-4.21.058-6.31.117v-1.516h1.053c1.636 0 2.803 0 2.803-1.931v-15.46zM193.109 228.918c-.133.56-.133 1.49 0 3.605.376 5.901 4.28 10.747 9.378 10.747 3.514 0 6.264-1.864 8.622-4.161l.891.872c-2.938 3.789-6.575 7.019-11.806 7.019-10.151 0-12.194-9.572-12.194-13.546 0-12.182 8.425-15.787 12.89-15.787 5.173 0 10.73 3.167 10.79 9.755 0 .377 0 .745-.06 1.123l-.579.373H193.11zm11.716-3.251c1.647 0 1.842-.594 1.842-1.139 0-2.325-2.046-4.195-5.745-4.195-4.024 0-6.796 2.049-7.589 5.334h11.492zM212 242.817h1.479c1.528 0 2.623 0 2.623-1.93v-16.392c0-1.808-2.022-2.16-2.846-2.626v-.872c3.997-1.812 6.188-3.33 6.686-3.33.324 0 .485.176.485.761v5.25h.116c1.365-2.274 3.669-6.011 7.005-6.011 1.369 0 3.119.99 3.119 3.092 0 1.576-1.037 2.98-2.57 2.98-1.704 0-1.704-1.404-3.617-1.404-.931 0-3.994 1.343-3.994 4.845v13.706c0 1.93 1.092 1.93 2.627 1.93h3.063v1.517c-3.012-.06-5.302-.116-7.661-.116-2.243 0-4.544.057-6.515.116v-1.516zM234.437 237.427c.797 4.103 3.243 7.585 7.714 7.585 3.602 0 4.95-2.237 4.95-4.412 0-7.334-13.338-4.973-13.338-14.976 0-3.482 2.757-7.957 9.487-7.957 1.956 0 4.586.562 6.972 1.807l.434 6.333h-1.41c-.61-3.911-2.751-6.15-6.673-6.15-2.448 0-4.771 1.43-4.771 4.1 0 7.278 14.198 5.034 14.198 14.79 0 4.1-3.245 8.453-10.528 8.453-2.448 0-5.324-.87-7.464-2.11l-.675-7.148 1.104-.315zM305.273 213.874h-1.488c-1.134-7.281-6.086-10.21-12.763-10.21-6.864 0-16.826 4.791-16.826 19.733 0 12.586 8.595 21.61 17.778 21.61 5.903 0 10.798-4.232 11.991-10.771l1.368.37-1.368 9.091c-2.505 1.623-9.246 3.303-13.186 3.303-13.954 0-22.779-9.403-22.779-23.412 0-12.765 10.913-21.921 22.603-21.921 4.83 0 9.482 1.625 14.075 3.307l.595 8.9zM308 242.791h1.181c1.748 0 2.999 0 2.999-1.963v-33.042c0-3.86-.936-3.978-3.307-4.63v-.948c2.493-.77 5.11-1.84 6.42-2.554.68-.354 1.183-.654 1.367-.654.381 0 .506.358.506.835v40.993c0 1.963 1.368 1.963 3.116 1.963h1.051v1.542c-2.11 0-4.292-.118-6.538-.118-2.241 0-4.485.058-6.795.118v-1.542zM346.648 240.245c0 1.055.647 1.112 1.651 1.112.712 0 1.596-.057 2.368-.057v1.228c-2.546.231-7.395 1.458-8.52 1.805l-.297-.176v-4.722c-3.544 2.857-6.269 4.898-10.47 4.898-3.194 0-6.505-2.04-6.505-6.939v-14.943c0-1.517-.235-2.977-3.542-3.267v-1.11c2.132-.057 6.854-.407 7.625-.407.657 0 .657.407.657 1.69v15.052c0 1.755 0 6.771 5.141 6.771 2.01 0 4.67-1.516 7.152-3.553v-15.705c0-1.162-2.836-1.803-4.96-2.389v-1.05c5.315-.352 8.633-.816 9.22-.816.48 0 .48.407.48 1.052v21.526zM359.006 222.354c2.505-2.095 5.889-4.437 9.34-4.437 7.271 0 11.654 6.23 11.654 12.94 0 8.07-6.014 16.143-14.983 16.143-4.635 0-7.078-1.48-8.71-2.155l-1.877 1.413-1.313-.674c.556-3.635.875-7.21.875-10.966v-26.495c0-4.007-.946-4.13-3.325-4.806v-.986c2.514-.8 5.139-1.91 6.456-2.652.69-.368 1.19-.679 1.384-.679.373 0 .499.372.499.867v22.487zm-.34 15.73c0 2.328 2.257 6.25 6.463 6.25 6.715 0 9.538-6.433 9.538-11.883 0-6.61-5.14-12.118-10.038-12.118-2.328 0-4.27 1.471-5.962 2.882v14.869z"/>
        </g>
    </g>
</svg>
