<?xml version="1.0" encoding="utf-8"?>
<!-- Generator: Adobe Illustrator 22.0.0, SVG Export Plug-In . SVG Version: 6.00 Build 0)  -->
<svg version="1.1" id="Capa_1" xmlns="http://www.w3.org/2000/svg" xmlns:xlink="http://www.w3.org/1999/xlink" x="0px" y="0px"
	 viewBox="0 0 297 297" style="enable-background:new 0 0 297 297;" xml:space="preserve">
<style type="text/css">
	.st0{fill:#FFFFFF;}
</style>
<g>
	<path class="st0" d="M254,121.9c0-5.5-4.4-9.9-9.7-9.9c-5.3,0-9.7,4.4-9.7,9.9h0v29.5c0,5.6-4.5,10.1-10.1,10.1
		c-5.6,0-10.1-4.5-10.1-10.1v-46.1c0-5.5-4.4-9.9-9.7-9.9c-5.3,0-9.7,4.4-9.7,9.9v32.9c0,5.6-4.5,10.1-10.1,10.1
		c-5.6,0-10.1-4.5-10.1-10.1V92c0-5.5-4.4-9.9-9.7-9.9c-5.3,0-9.7,4.4-9.7,9.9v32.9c0,5.6-4.5,10.1-10.1,10.1s-10.1-4.5-10.1-10.1
		V30.2c0-5.5-4.4-9.9-9.7-9.9c-5.4,0-9.7,4.4-9.7,9.9v146.7c0,4.2-2.6,8-6.6,9.5c-4,1.5-8.4,0.4-11.2-2.8l-39.1-44.8
		c-1.8-1.7-4.2-2.7-6.8-2.7c-2.6,0-5,1-6.9,2.8c-3.9,3.9-1.2,10.9,1.8,16c11.3,19.8,23.7,38.8,34.7,55.5c8.3,12.6,16.1,24.6,22,34.7
		c3.9,6.6,11.7,22.9,15.9,31.6h114.4C241,253.5,254,208,254,191.1V121.9z"/>
	<path d="M113,297h128.3c0,0,0,0,0,0L113,297C113,297,113,297,113,297z"/>
	<path d="M250.9,290c2.4-7.4,23.4-73.4,23.4-98.9v-69.2c0-16.7-13.5-30.2-30-30.2c-4.2,0-8.2,0.9-11.8,2.5
		C228,83,217.2,75.1,204.6,75.1c-4.7,0-9.1,1.1-13.1,3c-5-9.7-15-16.3-26.6-16.3c-3.4,0-6.7,0.6-9.7,1.6V30.2
		c0-16.7-13.5-30.2-30-30.2c-16.5,0-30,13.5-30,30.2v119.6l-21.6-24.7c-0.2-0.2-0.3-0.3-0.5-0.5c-5.7-5.7-13.2-8.8-21.3-8.9
		c-0.1,0-0.1,0-0.2,0c-8,0-15.5,3.1-21.1,8.7c-9.9,9.9-10.5,24.6-1.5,40.4c11.6,20.4,24.2,39.6,35.4,56.6
		c8.1,12.4,15.8,24.1,21.4,33.8c4.9,8.4,17.8,35.7,17.9,35.9c1.7,3.5,5.2,5.8,9.1,5.8h128.3C245.7,297,249.5,294.2,250.9,290z
		 M119.4,276.7c-4.2-8.8-12.1-25-15.9-31.6c-5.9-10.2-13.7-22.1-22-34.7c-11-16.7-23.4-35.7-34.7-55.5c-2.9-5.2-5.6-12.2-1.8-16
		c1.8-1.8,4.2-2.8,6.9-2.8c2.6,0,5,1,6.8,2.7l39.1,44.8c2.8,3.2,7.2,4.3,11.2,2.8c4-1.5,6.6-5.3,6.6-9.5V30.2c0-5.5,4.4-9.9,9.7-9.9
		c5.4,0,9.7,4.4,9.7,9.9v94.7c0,5.6,4.5,10.1,10.1,10.1s10.1-4.5,10.1-10.1V92c0-5.5,4.4-9.9,9.7-9.9c5.4,0,9.7,4.4,9.7,9.9v46.1
		c0,5.6,4.5,10.1,10.1,10.1c5.6,0,10.1-4.5,10.1-10.1v-32.9c0-5.5,4.4-9.9,9.7-9.9c5.4,0,9.7,4.4,9.7,9.9v46.1
		c0,5.6,4.5,10.1,10.1,10.1c5.6,0,10.1-4.5,10.1-10.1v-29.5h0c0-5.5,4.4-9.9,9.7-9.9c5.4,0,9.7,4.4,9.7,9.9v69.2
		c0,16.9-13,62.4-20.2,85.6H119.4z"/>
</g>
</svg>
