<?xml version="1.0" encoding="iso-8859-1"?>
<!-- Generator: Adobe Illustrator 19.0.0, SVG Export Plug-In . SVG Version: 6.00 Build 0)  -->
<svg xmlns="http://www.w3.org/2000/svg" xmlns:xlink="http://www.w3.org/1999/xlink" version="1.1" id="Capa_1" x="0px" y="0px" viewBox="0 0 466.869 466.869" style="enable-background:new 0 0 466.869 466.869;" xml:space="preserve" width="512px" height="512px">
<g>
	<path d="M31.502,277.466H49.86v172.793c0,9.616,6.993,16.609,16.609,16.609H400.4c9.616,0,16.609-6.993,16.609-16.609V277.466   h18.357c9.616,0,16.609-6.702,16.609-16.609V140.223c0-9.616-6.993-17.192-16.609-17.192h-82.171   c38.463-20.397,57.986-39.046,60.9-60.609c1.748-13.112-2.331-32.053-30.596-49.245C353.486-4.888,328.718-1.1,312.983,5.31   c-25.642,10.49-48.37,36.132-67.019,76.344c-2.914,6.119-5.245,11.947-7.576,17.483c-2.331-5.536-4.662-11.364-7.576-17.483   C211.872,41.442,189.435,15.8,163.793,5.31C148.058-1.1,123.29-4.888,93.277,13.178C64.721,30.37,60.933,49.601,62.681,62.714   c2.622,21.271,22.145,39.92,60.609,60.317H31.502c-9.616,0-16.609,7.576-16.609,17.192v120.635   C14.893,270.765,21.887,277.466,31.502,277.466z M84.826,277.466h131.125v154.436H84.826V277.466z M382.042,431.902H250.918   V277.466h131.125V431.902z M417.009,242.5H400.4H250.918v-84.502h9.616l0,0l0,0h156.475V242.5z M277.725,96.223   c14.569-31.47,31.47-51.867,48.662-58.86c4.371-1.748,8.742-2.622,13.404-2.622c8.159,0,16.609,2.622,25.642,8.159   c9.033,5.536,14.569,11.364,14.278,14.861c-2.04,15.735-53.033,43.708-111.893,62.066   C270.441,112.832,273.646,104.673,277.725,96.223z M97.065,57.76c-0.583-3.497,4.954-9.324,14.278-14.861   c9.033-5.536,17.483-8.159,25.642-8.159c4.662,0,9.033,0.874,13.404,2.622c27.099,11.073,47.496,52.158,58.86,82.463   C150.097,101.468,99.104,73.495,97.065,57.76z M49.86,157.997h166.091V242.5H66.469H49.86V157.997z" fill="#FFFFFF"/>
</g>
<g>
</g>
<g>
</g>
<g>
</g>
<g>
</g>
<g>
</g>
<g>
</g>
<g>
</g>
<g>
</g>
<g>
</g>
<g>
</g>
<g>
</g>
<g>
</g>
<g>
</g>
<g>
</g>
<g>
</g>
</svg>
