<?xml version="1.0" encoding="iso-8859-1"?><!DOCTYPE svg PUBLIC "-//W3C//DTD SVG 1.1//EN" "http://www.w3.org/Graphics/SVG/1.1/DTD/svg11.dtd"><svg version="1.1" id="Layer_1" xmlns="http://www.w3.org/2000/svg" xmlns:xlink="http://www.w3.org/1999/xlink" x="0px" y="0px"
	 width="509.42px" height="221.744px" viewBox="0 0 509.42 221.744" style="enable-background:new 0 0 509.42 221.744;"
	 xml:space="preserve"><a xlink:href="http://logo.webnhanh.com/logo/hipercard.svg.html" target="_blank"><path id="fundo" style="fill:#822124;" d="M139.846,0c-17.583,0-52.796,0-52.796,0C63.721,1.103,44.652,10.499,39.146,29.875
	c-2.871,10.105-4.451,21.203-6.696,31.678C21.037,114.815,10.917,169.545,0,221.744h411.038c31.777,0,53.597-6.715,59.492-31.937
	c2.739-11.716,5.363-24.985,7.984-37.857C488.73,101.762,498.955,51.577,509.42,0H139.846z"/><path id="hipercard" style="fill:#FFFFFF;" d="M135.725,78.808c2.208-1.521,5.052-8.448,1.803-11.332
	c-1.029-0.913-2.75-1.178-5.151-0.772c-2.227,0.376-3.508,1.133-4.378,2.318c-1.398,1.905-2.681,7.652-0.515,9.787
	C129.594,80.887,134.32,79.775,135.725,78.808z M104.305,67.476c-1.582,10.265-3.364,20.33-5.151,30.39
	c-11.473,0.121-23.187,0.566-34.253-0.258c2.09-9.842,3.589-20.276,5.666-30.132H58.205c-4.425,25.106-8.451,50.613-13.392,75.203
	h12.62c1.979-12.613,3.831-25.356,6.438-37.344c10.76-0.265,23.656-0.727,33.996,0.258c-2.132,12.463-4.708,24.479-6.696,37.086
	h12.62c4.056-25.477,8.327-50.736,13.393-75.203H104.305z M282.782,89.11c-9.819-3.966-17.539,2.736-21.118,9.014
	c0.812-2.793,1.146-6.064,1.804-9.014h-9.787c-2.393,18.555-5.919,35.975-9.271,53.569h11.075
	c1.552-10.443,2.222-24.521,5.665-34.511c2.752-7.983,9.954-14.784,20.346-11.074C281.64,94.149,282.483,91.901,282.782,89.11z
	 M288.962,130.06c-1.021-2.638-1.284-6.992-1.029-10.303c0.572-7.441,3.284-16.501,7.469-20.603
	c5.775-5.661,17.176-4.724,26.27-1.545c0.281-3.065,0.897-5.799,1.288-8.756c-14.914-2.436-29.066-0.92-36.57,6.954
	c-7.347,7.708-12.161,25.424-8.758,36.571c3.984,13.044,21.85,13.753,36.314,8.757c0.64-2.622,0.979-5.545,1.545-8.241
	C307.586,136.999,292.475,139.133,288.962,130.06z M413.356,89.367c-9.788-4.894-17.937,3.318-21.118,8.241
	c0.906-2.526,0.958-5.909,1.802-8.499h-9.786c-2.639,18.394-5.819,36.246-9.528,53.569h11.332c0.071-7.1,1.466-12.352,2.574-19.314
	c2.368-14.868,5.846-31.172,23.181-26.271C412.386,94.579,412.625,91.727,413.356,89.367z M124.393,89.11
	c-0.3,0.043-0.28,0.407-0.258,0.772c-2.44,18.249-5.743,35.637-9.271,52.796h11.074c2.661-18.372,5.709-36.355,9.529-53.569
	L124.393,89.11L124.393,89.11z M221.744,88.08c-8.002,0.617-14.766,2.919-19.573,7.984c-5.896,6.211-10.67,19.944-9.271,32.451
	c1.996,17.842,24.211,17.201,41.979,12.877c0.303-3.132,1.061-5.809,1.545-8.757c-7.319,2.739-20.028,6.562-27.558,1.804
	c-5.684-3.595-5.717-12.694-3.863-20.604c11.942-0.38,24.354-0.308,36.313,0c0.758-5.606,2.929-11.718,1.03-17.255
	C239.842,89.27,230.872,87.376,221.744,88.08z M232.303,107.653h-26.013c0.824-5.98,6.204-12.553,14.681-12.877
	C228.949,94.471,234.661,97.705,232.303,107.653z M179.765,89.11c-9.373-3.521-20.796,0.682-25.749,4.68
	c0.018,0.176-0.118,0.2-0.264,0.213c0.084-0.071,0.176-0.142,0.264-0.213c-0.001-0.014-0.002-0.027-0.005-0.044
	c0.083-1.719,0.688-2.917,0.772-4.636h-9.529c-3.971,26.419-8.68,52.099-13.649,77.52h11.074c1.603-9.9,2.661-20.345,4.894-29.617
	c2.529,9.752,19.043,7.889,26.012,4.121C187.962,133.358,199.052,96.354,179.765,89.11z M171.009,132.635
	c-5.925,6.275-20.491,6.181-21.634-4.379c-0.497-4.594,1.214-9.411,2.062-14.164c0.855-4.811,1.472-9.427,2.316-13.65
	c5.836-7.126,22.985-7.987,24.725,3.863C179.987,114.593,175.915,127.438,171.009,132.635z M454.562,65.931
	c-0.949,8.322-2.218,16.325-3.862,23.951c-27.165-8.599-43.824,11.388-43.524,36.057c0.059,4.771,0.88,9.502,3.862,12.877
	c5.144,5.814,19.866,7.207,27.301,2.317c1.438-0.946,2.909-2.668,3.862-3.862c0.717-0.899,1.854-3.254,2.061-2.576
	c-0.392,2.613-0.976,5.035-1.029,7.983h10.044c1.937-27.768,7.921-51.485,12.362-76.748h-11.076V65.931z M429.839,136.755
	c-7.455,0.16-11.162-4.454-11.333-12.104c-0.297-13.398,5.58-28.283,17.514-29.618c5.556-0.621,9.579,0.671,13.65,2.061
	C445.932,112.144,447.281,136.381,429.839,136.755z M334.29,89.11c-0.545,3.06-1.382,5.829-2.06,8.756
	c6.535-1.639,26.884-6.663,28.845,2.06c0.651,2.898-0.472,5.977-1.288,8.242c-18.4-1.743-33.398,1.314-37.344,14.422
	c-2.642,8.78,0.296,17.42,5.924,19.832c10.839,4.644,24.023-0.676,28.587-7.983c-0.474,2.529-0.923,5.086-0.771,8.24h9.528
	c0.102-9.126,1.43-16.513,2.833-24.725c1.196-6.993,3.447-13.916,3.091-20.088C370.815,83.731,347.398,88.731,334.29,89.11z
	 M352.318,132.377c-5.707,5.587-21.727,7.174-20.088-6.181c1.36-11.092,13.438-13.449,26.525-11.848
	C357.783,120.416,356.667,128.12,352.318,132.377z"/></a></svg>
