<?xml version="1.0" encoding="utf-8"?>
<!-- Generator: Adobe Illustrator 22.1.0, SVG Export Plug-In . SVG Version: 6.00 Build 0)  -->
<svg version="1.1" id="Layer_1" xmlns="http://www.w3.org/2000/svg" xmlns:xlink="http://www.w3.org/1999/xlink" x="0px" y="0px"
	 viewBox="0 0 264 31" style="enable-background:new 0 0 264 31;" xml:space="preserve">
<style type="text/css">
	.st0{fill:#8FBB08;}
	.st1{fill:#E30251;}
</style>
<g id="Ribbon">
	<g id="XMLID_308_">
		<path id="XMLID_617_" class="st0" d="M9.4,21.6c0,0,0.4,0,1.2-0.1c0.8-0.1,1.9-0.2,3.4-0.4c2.9-0.3,7.1-0.7,12.1-1
			c2.5-0.2,5.2-0.3,8.1-0.4c2.9-0.1,5.9-0.3,9-0.3c3.1-0.1,6.4-0.2,9.7-0.2c3.3,0,6.6-0.1,10-0.1c3.3,0,6.7,0.1,10,0.1
			c3.3,0,6.5,0.2,9.7,0.2c3.1,0.1,6.2,0.2,9,0.3c2.9,0.1,5.6,0.3,8.1,0.4c5,0.3,9.2,0.7,12.1,1c1.5,0.1,2.6,0.3,3.4,0.4
			c0.8,0.1,1.2,0.1,1.2,0.1v0.3c0,0-26.8,0.1-53.5,0.1C36.1,22,9.4,21.9,9.4,21.9V21.6z"/>
	</g>
	<g id="XMLID_236_">
		<path id="XMLID_576_" class="st0" d="M148.9,21.6c0,0,0.4,0,1.2-0.1c0.8-0.1,1.9-0.2,3.4-0.4c2.9-0.3,7.1-0.7,12.1-1
			c2.5-0.2,5.2-0.3,8.1-0.4c2.9-0.1,5.9-0.3,9-0.3c3.1-0.1,6.4-0.2,9.7-0.2c3.3,0,6.6-0.1,10-0.1c3.3,0,6.7,0.1,10,0.1
			c3.3,0,6.5,0.2,9.7,0.2c3.1,0.1,6.2,0.2,9,0.3c2.9,0.1,5.6,0.3,8.1,0.4c5,0.3,9.2,0.7,12.1,1c1.5,0.1,2.6,0.3,3.4,0.4
			c0.8,0.1,1.2,0.1,1.2,0.1v0.3c0,0-26.8,0.1-53.5,0.1c-26.8-0.1-53.5-0.1-53.5-0.1V21.6z"/>
	</g>
	<circle id="XMLID_235_" class="st1" cx="132.9" cy="15.7" r="2.1"/>
	<g id="XMLID_207_">
		<path id="XMLID_535_" class="st1" d="M132.8,21.8c0,0-1.2-0.5-3.1-1.4c-0.9-0.4-2-0.9-3.1-1.5c-1.1-0.5-2.3-1.2-3.5-1.8
			c-1.2-0.6-2.5-1.1-3.5-1.7c-1.1-0.6-2-1.4-2.7-2.1c-0.7-0.7-1.3-1.3-1.7-1.8c-0.4-0.5-0.6-0.8-0.6-0.8l0.2-0.3c0,0,0.4,0,1,0.1
			c0.6,0.1,1.4,0.3,2.4,0.7c1,0.3,2,0.8,3.1,1.5c1.1,0.7,2.1,1.6,3.2,2.3c1.1,0.8,2.2,1.5,3.2,2.3c1,0.7,1.9,1.5,2.7,2.1
			c1.6,1.2,2.7,2.1,2.7,2.1L132.8,21.8z"/>
	</g>
	<g id="XMLID_203_">
		<path id="XMLID_519_" class="st1" d="M132.8,21.5c0,0,1-0.8,2.7-2.1c0.8-0.6,1.7-1.3,2.7-2.1c1-0.8,2.1-1.5,3.2-2.3
			c1.1-0.8,2.1-1.7,3.2-2.3c1.1-0.6,2.2-1.1,3.1-1.5c1-0.3,1.8-0.6,2.4-0.7c0.6-0.1,1-0.1,1-0.1l0.2,0.3c0,0-0.2,0.3-0.6,0.8
			c-0.4,0.5-1,1.1-1.7,1.8c-0.8,0.7-1.7,1.4-2.7,2.1c-1.1,0.6-2.4,1.1-3.5,1.7c-1.2,0.6-2.4,1.2-3.5,1.8c-1.1,0.6-2.2,1-3.1,1.5
			c-1.8,0.9-3.1,1.4-3.1,1.4L132.8,21.5z"/>
	</g>
</g>
</svg>
